/* XPM */
static char *_516721575771[] = {
/* columns rows colors chars-per-pixel */
"128 128 44 1 ",
"  c #DBC2A7E324B0",
". c #DC1AA8B926CA",
"X c #DCD3AA7A2B21",
"o c #DE33ADD53396",
"O c #DF01AFC7385C",
"+ c #DF9FB14A3C41",
"@ c #E046B2E24054",
"# c #E0F2B485445A",
"$ c #E208B72C4B17",
"% c #E2A0B89B4E82",
"& c #E362BA755343",
"* c #E4CBBDE05BAA",
"= c #E596BFD460C7",
"- c #E639C1616488",
"; c #E77FC47D6C61",
": c #E83AC64770EE",
"> c #E8C1C78C740A",
", c #E931C89B7690",
"< c #EA01CA937B7D",
"1 c #EB5BCDE183DA",
"2 c #EC35CFF3891D",
"3 c #ED08D1EC8D9C",
"4 c #EE09D4639407",
"5 c #EF24D70F9A96",
"6 c #EFD2D8BF9EF4",
"7 c #F033D9A9A129",
"8 c #F0D5DB34A513",
"9 c #F1FFDE02ABD7",
"0 c #F2E2E028B11C",
"q c #F379E19DB4F6",
"w c #F4CDE4D1BCAB",
"e c #F5E3E778C361",
"r c #F689E906C706",
"t c #F775EB46CCC3",
"y c #F852ED66D22D",
"u c #F8EFEEE1D5DB",
"i c #F970F019D8DB",
"p c #FA35F1F7DD7D",
"a c #FB81F517E4F6",
"s c #FC54F719E9F8",
"d c #FD30F932EF32",
"f c #FE33FBA6F546",
"g c #FFF9FFF2FFE2",
"h c None",
/* pixels */
"hhhhhhhhhhhhhhhhhhhhhhhhhhhhhhhhhhhhhhhhhhhhhhhhhhhhhhhhhhhhhhhhhhhhhhhhhhhhhhhhhhhhhhhhhhhhhhhhhhhhhhhhhhhhhhhhhhhhhhhhhhhhhhhh",
"hhhhhhhhhhhhhhhhhhhhhhhhhhhhhhhhhhhhhhhhhhhhhhhhhhhhhhhhhhhhhhhhhhhhhhhhhhhhhhhhhhhhhhhhhhhhhhhhhhhhhhhhhhhhhhhhhhhhhhhhhhhhhhhh",
"hhhhhhhhhhhhhhhhhhhhhhhhhhhhhhhhhhhhhhhhhhhhhhhhhhhhhhhhhhhhhhhhhhhhhhhhhhhhhhhhhhhhhhhhhhhhhhhhhhhhhhhhhhhhhhhhhhhhhhhhhhhhhhhh",
"hhhhhhhhhhhhhhhhhhhhhhhhhhhhhhhhhhhhhhhhhhhhhhhhhhhhhhhhhhhhhhhhhhhhhhhhhhhhhhhhhhhhhhhhhhhhhhhhhhhhhhhhhhhhhhhhhhhhhhhhhhhhhhhh",
"hhhhhhhhhhhhhhhhhhhhhhhhhhhhhhhhhhhhhhhhhhhhhhhhhhhhhhhhhhhhhhhhhhhhhhhhhhhhhhhhhhhhhhhhhhhhhhhhhhhhhhhhhhhhhhhhhhhhhhhhhhhhhhhh",
"hhhhhhhhhhhhhhhhhhhhhhhhhhhhhhhhhhhhhhhhhhhhhhhhhhhhhhhhhhhhhhhhhhhhhhhhhhhhhhhhhhhhhhhhhhhhhhhhhhhhhhhhhhhhhhhhhhhhhhhhhhhhhhhh",
"hhhhhhhhhhhhhhhhhhhhhhhhhhhhhhhhhhhhhhhhhhhhhhhhhhhhhhhhhhhhhhhhhhhhhhhhhhhhhhhhhhhhhhhhhhhhhhhhhhhhhhhhhhhhhhhhhhhhhhhhhhhhhhhh",
"hhhhhhhhhhhhhhhhhhhhhhhhhhhhhhhhhhhhhhhhhhhhhhhhhhhhhhhhhhhhhhhhhhhhhhhhhhhhhhhhhhhhhhhhhhhhhhhhhhhhhhhhhhhhhhhhhhhhhhhhhhhhhhhh",
"hhhhhhhhhhhhhhhhhhhhhhhhhhhhhhhhhhhhhhhhhhhhhhhhhhhhhhhhhhhhhhhhhhhhhhhhhhhhhhhhhhhhhhhhhhhhhhhhhhhhhhhhhhhhhhhhhhhhhhhhhhhhhhhh",
"hhhhhhhhhhhhhhhhhhhhhhhhhhhhhhhhhhhhhhhhhhhhhhhhhhhhhhhhhhhhhhhhhhhhhhhhhhhhhhhhhhhhhhhhhhhhhhhhhhhhhhhhhhhhhhhhhhhhhhhhhhhhhhhh",
"hhhhhhhhhhhhhhhhhhhhhhhhhhhhhhhhhhhhhhhhhhhhhhhhhhhhhhhhhhhhhhhhhhhhhhhhhhhhhhhhhhhhhhhhhhhhhhhhhhhhhhhhhhhhhhhhhhhhhhhhhhhhhhhh",
"hhhhhhhhhhhhhhhhhhhhhhhhhhhhhhhhhhhhhhhhhhhhhhhhhhhhhhhhhhhhhhhhhhhhhhhhhhhhhhhhhhhhhhhhhhhhhhhhhhhhhhhhhhhhhhhhhhhhhhhhhhhhhhhh",
"hhhhhhhhhhhhhhhhhhhhhhhhhhhhhhhhhhhhhhhhhhhhhhhhhhhhhhhh+OOOOOOOOOOOOOOOhhhhhhhhhhhhhhhhhhhhhhhhhhhhhhhhhhhhhhhhhhhhhhhhhhhhhhhh",
"hhhhhhhhhhhhhhhhhhhhhhhhhhhhhhhhhhhhhhhhhhhhhhhhhhhXXXXXXXXXXXXXXXXXXXXXXXXXXhhhhhhhhhhhhhhhhhhhhhhhhhhhhhhhhhhhhhhhhhhhhhhhhhhh",
"hhhhhhhhhhhhhhhhhhhhhhhhhhhhhhhhhhhhhhhhhhhhhhhhOXXXXXXXXXXXXXXXXXXXXXXXXXXXXXXXhhhhhhhhhhhhhhhhhhhhhhhhhhhhhhhhhhhhhhhhhhhhhhhh",
"hhhhhhhhhhhhhhhhhhhhhhhhhhhhhhhhhhhhhhhhhhhhhXXXXXXXXXXXXXXXXXXXXXXXXXXXXXXXXXXXXXXhhhhhhhhhhhhhhhhhhhhhhhhhhhhhhhhhhhhhhhhhhhhh",
"hhhhhhhhhhhhhhhhhhhhhhhhhhhhhhhhhhhhhhhhhhXXXXXXXXXXXXXXXXX.X.XXXX.XXXXXXXXXXXXXXXXXXXhhhhhhhhhhhhhhhhhhhhhhhhhhhhhhhhhhhhhhhhhh",
"hhhhhhhhhhhhhhhhhhhhhhhhhhhhhhhhhhhhhhhhXXXXXXXXXXXXXXXXXXo=:*XXXO@#XXXXXXXXXXXXXXXXXXXXhhhhhhhhhhhhhhhhhhhhhhhhhhhhhhhhhhhhhhhh",
"hhhhhhhhhhhhhhhhhhhhhhhhhhhhhhhhhhhhhhOXXXXXXXXXXXXXXXXXX.*8>8OX-<<:OXX&#XXXXXXXXXXXXXXXXXhhhhhhhhhhhhhhhhhhhhhhhhhhhhhhhhhhhhhh",
"hhhhhhhhhhhhhhhhhhhhhhhhhhhhhhhhhhhhh.XXXXXXXXXXXXX#:+XXXXO==$XX<<34$XXq1.X>&XXXXXXXXXXXXXXhhhhhhhhhhhhhhhhhhhhhhhhhhhhhhhhhhhhh",
"hhhhhhhhhhhhhhhhhhhhhhhhhhhhhhhhhhhXXXXXXXXXXXXXX#<2*o.XXXX.  .X*;*&X.oe>.ot>.XXXXXXXXXXXXX.Xhhhhhhhhhhhhhhhhhhhhhhhhhhhhhhhhhhh",
"hhhhhhhhhhhhhhhhhhhhhhhhhhhhhhhhhhXXXXXXXXXXXXXXX&&X  X.&1454,*$O.OOXXOt-.#u&XXXXXXXXXXXX.OoXXhhhhhhhhhhhhhhhhhhhhhhhhhhhhhhhhhh",
"hhhhhhhhhhhhhhhhhhhhhhhhhhhhhhhhXoXXXXXXXXXXXXXXXX.%;&X.*=%&1eu9=X46o Ot&.*y+XXXXXXXXXXXXO;<=OX.hhhhhhhhhhhhhhhhhhhhhhhhhhhhhhhh",
"hhhhhhhhhhhhhhhhhhhhhhhhhhhhhhhXXXXXXXX.XXXXXXXXX.:71q3@%-276<#oXX#y7>6e+X<qXXXXXXXXXXXX.*4<>>OXXhhhhhhhhhhhhhhhhhhhhhhhhhhhhhhh",
"hhhhhhhhhhhhhhhhhhhhhhhhhhhhhhXXXXXXXXXoXX@>OX$O.Ot2=7t984:%o.XXXX&e11<$X.64.XXXXX#$+&@XXO*43<XXXXhhhhhhhhhhhhhhhhhhhhhhhhhhhhhh",
"hhhhhhhhhhhhhhhhhhhhhhhhhhhhhXXXXXXXXXXXX.&1Oo90*4w44>OoX..XXX+4560:X..XXX*%XXXXo5814i:.X+1@&$XXXXXhhhhhhhhhhhhhhhhhhhhhhhhhhhhh",
"hhhhhhhhhhhhhhhhhhhhhhhhhhhhXXXXXXXXXXXXXX.X.XOqt<O.X.XXXXXXXXX+&&O.XXXXXXXXXXXXX88#;t+X.1u@..XXXXXXhhhhhhhhhhhhhhhhhhhhhhhhhhhh",
"hhhhhhhhhhhhhhhhhhhhhhhhhhhXXXXXX.XXXXXXXO@XX.X9: XXXXXXXXXXXXXX..XXXXXXXXXXXXXXXO<8u4.X#u1.XXOXXXXXXhhhhhhhhhhhhhhhhhhhhhhhhhhh",
"hhhhhhhhhhhhhhhhhhhhhhhhhhXXXXXX*<oXXXXX.,6.X$55OXXXXXXX...XXXooOXXX...XXXXXXXXXXX.o10#X5eO..*9OXXXXXXhhhhhhhhhhhhhhhhhhhhhhhhhh",
"hhhhhhhhhhhhhhhhhhhhhhhhhXXXXXXX*i1XXXXXX&t970,O.XXXX..o#*<49qerteq94<*@X..XXXXX+*#oo<00s;.XOe6oXXXXXXohhhhhhhhhhhhhhhhhhhhhhhhh",
"hhhhhhhhhhhhhhhhhhhhhhhhXXXXXooXX;i,XXXXXX%:=O%<O...O*4wafggggggggggggfae3*OXXXXO-<1+X+*q>. 3e+Xo*o.XXXXhhhhhhhhhhhhhhhhhhhhhhhh",
"hhhhhhhhhhhhhhhhhhhhhhhXXXXX.:q#.X;i:XXXXX...=1$XX%3tfggggggggggggggggggggft3%XXX.XOXXX.%021u*.X1y#XXXXXXhhhhhhhhhhhhhhhhhhhhhhh",
"hhhhhhhhhhhhhhhhhhhhhhXXXXXX.@qt%..>t@.XXXXXo&oX*9agggggggggggggggggggggggggga9*X.XXXXXXX+10;XX-p;XXXXXXXXhhhhhhhhhhhhhhhhhhhhhh",
"hhhhhhhhhhhhhhhhhhhhhhXXXXoXXXO7t%.o%oXXXXXX..%9dggggggggggggggggggggggggggggggd9%XXXXXXXXXXX.&u1XXXXXXXXXhhhhhhhhhhhhhhhhhhhhhh",
"hhhhhhhhhhhhhhhhhhhhhXXX.O:=OXXX60XXXXXXXXX.O2sgggggggggggggggggggggggggggggggggga3OXXXXXXXXX@r5XXXXXXXXXXXhhhhhhhhhhhhhhhhhhhhh",
"hhhhhhhhhhhhhhhhhhhhXXXXX=:4*.X 17XXXXXXXXX*tgggggggggggggggggggggggggggggggggggggge*XXXXXXXX$3OXXXXXXXXXXXXhhhhhhhhhhhhhhhhhhhh",
"hhhhhhhhhhhhhhhhhhhhXXXX+<12oOO;0%XXXXXXXX<agggggggggggggggggggggggggggggggggggggggga<o.XXXXXXXXXXXXXXXXXXXXhhhhhhhhhhhhhhhhhhhh",
"hhhhhhhhhhhhhhhhhhhXXXXX@:5%O9ta= XXXXXXO6fggggggggggggggggggggggggggggggggggggggggggf5OXXXXXXXXXXXXXXXXXXXoXhhhhhhhhhhhhhhhhhhh",
"hhhhhhhhhhhhhhhhhhXXXXXX.@&.X#%0:.XXXXXO9gggggggggggggggggggggggggggggggggggggggggggggg9OXXXXXXXXXXXXXXXXXXXXXhhhhhhhhhhhhhhhhhh",
"hhhhhhhhhhhhhhhhhhXXXXXXXX.;%. 4:.XXXXO0gggggggggggggggggggggggggggggggggggggggggggggggg9+XXXXXXXXXXXoXXXXXXXXhhhhhhhhhhhhhhhhhh",
"hhhhhhhhhhhhhhhhhXXXXXXXX.;q@.+9#XXX.O9gggggggggggggggggggggggggggggggggggggggggggggggggg8oXXXXXO+XXXXXXXXXXo.Xhhhhhhhhhhhhhhhhh",
"hhhhhhhhhhhhhhhhhXXXXXXX.-u4.O4<XXXXX4gggggggggggggggggggggggggggggggggggggggggggggggggggg5XXXXXO4*.XXXXXXXXXXXhhhhhhhhhhhhhhhhh",
"hhhhhhhhhhhhhhhho.XXXXXX=99=.*1XXXXX<gggggggggggggggggggggggggggggggggggggggggggggggggggggg<XXXX.&9<X...XXXXXXXXhhhhhhhhhhhhhhhh",
"hhhhhhhhhhhhhhhhXXXXXXX@9=8+X*oXXX.*agggggggggggggggggggggggggggggggggggggggggggggggggggggga*.XXX.#79<:#XXXXXXXXhhhhhhhhhhhhhhhh",
"hhhhhhhhhhhhhhhhXXXXXX.2>*5.#1XXXXOrggggggggggggggggggggggggggggggggggggggggggggggggggggggggrOXXXX.O;we9&XXXXXXXhhhhhhhhhhhhhhhh",
"hhhhhhhhhhhhhhhXXXXXXX+7O4: ;=XXXX3gggggggggggggggggggggggggggggggggggggggggggggggggggggggggg3XXXXXo ;4*4XXXXXXXXhhhhhhhhhhhhhhh",
"hhhhhhhhhhhhhhhXXXXXXXO*@0+X<+XX.&agggggggggggggggggggggggggggggggggggggggggggggggggggggggggga&XXXO<o$9&9O.XXXXXXhhhhhhhhhhhhhhh",
"hhhhhhhhhhhhhhhXXXXXXXX <3XXOXXXX9gggggggggggggggggggggggggggggggggggggggggggggggggggggggggggg9XXXX-,X2t7oXXXXXXXhhhhhhhhhhhhhhh",
"hhhhhhhhhhhhhhXXXXXXXXX+9%.XXXXX*fggggggggggggggggggggggggggggggggggggggggggggggggggggggggggggd*.XXX<*Ow=XXXXXXXXXhhhhhhhhhhhhhh",
"hhhhhhhhhhhhhhXXXXXXXX,q3#&XXXXX9gggggggggggggggggggggggggggggggggggggggggggggggggggggggggggggg9oXXXO+.6=.XXXXXXXXhhhhhhhhhhhhhh",
"hhhhhhhhhhhhhhXXXXXXXX1wo;<XXXX%agggggggffaaasfggggggggffggggggggggggggggggggggggggggggggggggggs%.XX.X.;7O.XXXXXXXhhhhhhhhhhhhhh",
"hhhhhhhhhhhhhXXXXXXXX.%9O<+XXXX3ggggggge*%#@@$*3tggggga-;agggggggggggggggggggggggggggggggggggggg4.XXXX.o7w$.XoXXXXXhhhhhhhhhhhhh",
"hhhhhhhhhhhhhXXXXXXXX =5#4oXXXOtggggggg9.+,11;%XO1sgggrXotggggggggggggggggggggggggggggggggggggggtO.XXXX.1q#.@8*.XXXhhhhhhhhhhhhh",
"hhhhhhhhhhhhhXXXXXXXX%9;XoXXXX*fggggggg9.,ggggdq%.:dggf78fggggggggggggggggggggggggggggggggggggggf*.XXXXX:2 X%1<OXXXhhhhhhhhhhhhh",
"hhhhhhhhhhhhhXXXXXXX>ueOXXXXX.3gggggggg9.<ggggggu%X6ggggggggggggggggggggggggfgggggggggggggggggggg3.XXXX.@0:o+13+XXXhhhhhhhhhhhhh",
"hhhhhhhhhhhhhXXXXXX@9-9OXXXXXXwgggggggg9.<ggggggg9X&dgd55fggq4sp3-;7dggggp6>=;4agggg86fe:4fggggggeoXXXXX.5tOX<1XXXXhhhhhhhhhhhhh",
"hhhhhhhhhhhhOXXXXX.=1&7XXXXXX@agggggggg9.<ggggggga#otga+#sgg:O5%+$oX>fggg;O*-%X&pggf&#7+.;ggggggga#XXXXXX5;.XXXXXXXOhhhhhhhhhhhh",
"hhhhhhhhhhhhOXXXXX.-45>.XXXXX*fgggggggg9.<gggggggg-.qgp+#sgg<X+1asw#X9gggtyfgs1.1ggg=O#>epgggggggf*.XXXX.>6OXXXXXXXOhhhhhhhhhhhh",
"hhhhhhhhhhhhOXXXXXX+et+XXoXX.<ggggggggg9.<gggggggg;.9ga@#sgg< ;fggg5.>gggggggguO&fgf-.*dgggggggggg,.XXXXXOewOXXXXXXOhhhhhhhhhhhh",
"hhhhhhhhhhhhOXXXXXX.&e=.XXXX.4ggggggggg9.,gggggggg-.0ga+#agg< 8ggggtX*fggggpw83O$agg-.8ggggggggggg4.XXXXXOq<o.XXXXXOhhhhhhhhhhhh",
"hhhhhhhhhhhh+XXXXXXXX,6XXXXXX9ggggggggg9.,gggggggs%orga+#sgg<.9ggggto*fggi<@+##X#sgf-Xwggggggggggg9XXXXXX+9OXXXXXXXOhhhhhhhhhhhh",
"hhhhhhhhhhhhOXXXXXXX.$9OXXXXoqggggggggg9.<gggggggro$sga##sgg<.9ggggtX*fgp%o1tau##agg-XegggggggggggqXXXOo.O9+XXXXXXXOhhhhhhhhhhhh",
"hhhhhhhhhhhhOXXXXXXXXO8#.XXXXeggggggggg9.,ggggggf>.3gga+#sgg<.9ggggto*fg4 3gggs##agg-XwgggggggggggeoXX>@OO9#XOXXXXXOhhhhhhhhhhhh",
"hhhhhhhhhhhhOXXXXXXXXX4&XXXXOrggggggggg9.<gggggf4X%pggp@$agg<X0ggggto*fg;.qgggu+#agg-XegggggggggggeOX.;*4%6*3<.XXXXOhhhhhhhhhhhh",
"hhhhhhhhhhhhOXXXXXXXX.<-XXXXorggggggggg9.:fffaq;X#eggga+#sgg<.9ggggto*fg1 1fga>X#agf-XegggggggggggtoXX&>,#3pp-XXXXX+hhhhhhhhhhhh",
"hhhhhhhhhhhhOXXXXXXXXX*&XXXXXeggggggggg9.o&&%#XO>ygggga+#agg< 9ggggtX*fgt+X=>%*$Oagg-XwgggggggggggeoX.#<XX$4&XXXXXXOhhhhhhhhhhhh",
"hhhhhhhhhhhhO.XXXXXXXXXoXXXXXwgggggggggt>;==;<8yggggggd23fgg0<tgggga<5gggt:&*5s81agg6<igggggggggggqXXXX@XXXX.XXXXX.Ohhhhhhhhhhhh",
"hhhhhhhhhhhhOXXXXXXXXXXXXXXXX9gggggggggggggfgggggggggggggggggggggggggggggggfgggggggggggggggggggggg9XXXXXXXXXXXXXXXXOhhhhhhhhhhhh",
"hhhhhhhhhhhhOXXXXXXXXXXXXXXX.4gggggggggggggggggggggggggggggggggggggggggggggggggggggggggggggggggggg4.XXXXXXXXXXXXXXXOhhhhhhhhhhhh",
"hhhhhhhhhhhhOXXXXXXXXXXXXXXX.<gggggggggggggggggggggggggggggggggggggggggggggggggggggggggggggggggggg<.XXXXXXXXXXXXXXXOhhhhhhhhhhhh",
"hhhhhhhhhhhhOXXXXXXXXXXXXXXX.*fggggggggggggggggggggggggggggggggggggggggggggggggggggggggggggggggggf*XXXXXXXXXXXoXXXXOhhhhhhhhhhhh",
"hhhhhhhhhhhh+XXXXXXXXXXXXXXXX#agggggggggggggggggggggggggggggggggggggggggggggggggggggggggggggggggga#XXXXXXXXXXXXXXXXOhhhhhhhhhhhh",
"hhhhhhhhhhhhhXXXXXXXXXXXXXXXXowggggggggggggggggggggggggggggggggggggggggggggggggggggggggggggggggggwXXXXXXXXXXXXXXXXXhhhhhhhhhhhhh",
"hhhhhhhhhhhhhXXXXXXXXXXoXXXXXX3gggggggggggggggggggggggggggggggggggggggggggggggggggggggggggggggggg3XXXXXXXXXXXXXXXXXhhhhhhhhhhhhh",
"hhhhhhhhhhhhhXXXXXXXXXXXXXXXX.*fggggggggggggggggggggggggggggggggggggggggggggggggggggggggggggggggf*XXXXXXXXXXXXXXXXXhhhhhhhhhhhhh",
"hhhhhhhhhhhhhXXXXXXXXXXXXXXXXXOtggggggggggggggggggggggggggggggggggggggggggggggggggggggggggggggggtOXXXXXXXXXXXXXXXXXhhhhhhhhhhhhh",
"hhhhhhhhhhhhhXoXXXXXXXXXXXXXXXX3gggggggggggggggggggggggggggggggggggggggggggggggggggggggggggggggg3XXXXXXXXXXXXXXXXXXhhhhhhhhhhhhh",
"hhhhhhhhhhhhhhXXXXXXXXXXXXXXXXX&sggggggggggggggggggggggggggggggggggggggggggggggggggggggggggggggs%.XXXXXXXoXXXXXXXXhhhhhhhhhhhhhh",
"hhhhhhhhhhhhhhXXXXXXXXXXXXXXXXXX9gggggggggggggggggggggggggggggggggggggggggggggggggggggggggggggg9XXXXXXXXXXXXXXXXXXhhhhhhhhhhhhhh",
"hhhhhhhhhhhhhhXXXXXXXXXXXXXXXXXX*dggggggggggggggggggggggggggggggggggggggggggggggggggggggggggggd*XXXXXXXXXXXXXXXXXXhhhhhhhhhhhhhh",
"hhhhhhhhhhhhhhhXXoXXXXXXXXXXXXXXX9gggggggggggggggggggggggggggggggggggggggggggggggggggggggggggg9XXXXXXXXXXXXXXXXXXhhhhhhhhhhhhhhh",
"hhhhhhhhhhhhhhhXXXXXXXXXXXXXXXXXX&agggggggggggggggggggggggggggggggggggggggggggggggggggggggggga&XXXXXXXXXXXXXXXXXXhhhhhhhhhhhhhhh",
"hhhhhhhhhhhhhhhXXXXXXXXXXXXXXXXXXX3gggggggggggggggggggggggggggggggggggggggggggggggggggggggggg3XXXoXXXXXXXXXXXXXXXhhhhhhhhhhhhhhh",
"hhhhhhhhhhhhhhhhXXXXXXXXXXXXXXXXX.+rggggggggggggggggggggggsaggggggggggggggggggggggggggggggggrOXXXXXXXXXXXXXXXXXXhhhhhhhhhhhhhhhh",
"hhhhhhhhhhhhhhhhXXXXXXXXXXXXXXXXXXX&sgggggggggggggggggggggw4ggggggggggggggggggggggggggggggga*XXXXXXXXXXXXXXXXoXXhhhhhhhhhhhhhhhh",
"hhhhhhhhhhhhhhhhXXXXXXXXXXXXXXXXXXXX<fggggggggggggggggggggw3ggfgggggggggggggggggggggggggggf<XXXXXXXXXXXXXXXXXXXXhhhhhhhhhhhhhhhh",
"hhhhhhhhhhhhhhhhhXXXXXXXXXXoXXXXXXXXo5gggggggggggggggggggge1gf3ygggggtpggggggggggggggggggg5XXXXXXXXXXXXXXXXXXXXhhhhhhhhhhhhhhhhh",
"hhhhhhhhhhhhhhhhhXXXXXXXXXXXXXXXXXXXXo9ggggggggggggggggdtgt1ggyfgytggq-yggggggggggggggggg9OXXXXXXXXXXXXXXXoXXXXhhhhhhhhhhhhhhhhh",
"hhhhhhhhhhhhhhhhhhXXXXXXXXXXXXXXXXXXXX+9gggggggggggggggp;dy<ggggge1gggq,fggggggggggggggg9OXXXXXXXXXXXXXXXXXXXXhhhhhhhhhhhhhhhhhh",
"hhhhhhhhhhhhhhhhhhXXXXXXXXXXXXXXXXXXXXX+9ggggggggggggggg1ep,gg5ugf<sggg1rgggggggggggggg9+XXXXXXXXXXXXXXXXXXXXXhhhhhhhhhhhhhhhhhh",
"hhhhhhhhhhhhhhhhhhhXXXXXXXXXXoXXXXXXXXXXo5fggggggggggggg08d-59&<wq;aewq;wggggggggggggf4OXXXXXXXXXXXXXoXXXXXXXhhhhhhhhhhhhhhhhhhh",
"hhhhhhhhhhhhhhhhhhhhXXoXXXXXXXXXXXXXXXXXXX<sgggggggggggg99gw:,e3;:8f4;:7fgggggggggggs<XXXXXXXXXXXXXXXXXXXXXXhhhhhhhhhhhhhhhhhhhh",
"hhhhhhhhhhhhhhhhhhhhXXXXXXXXXXXXXXXXXXXXXX.*rggggggggfgi:iggggggggggggggggggggggggge*XXXXXXXXXXXXXXXXXXXXXXXhhhhhhhhhhhhhhhhhhhh",
"hhhhhhhhhhhhhhhhhhhhhXXXXXXXXXXXXXXXXXXXXXXX+3agggggg6;-9gggggggt98sggggggggggggga3O.XXXXXXXXXXXXXXXXXXXXXXhhhhhhhhhhhhhhhhhhhhh",
"hhhhhhhhhhhhhhhhhhhhhhXXXXXXXXXXXXXXXXXXXXXXXX&9dggggstagggggggguq0sgggggggggggd9&XXXXXXXXXXXXXXXXXXXXXXXXhhhhhhhhhhhhhhhhhhhhhh",
"hhhhhhhhhhhhhhhhhhhhhhXXXXXXXXXXXXXXXXXXXXXXXX.X*9sggggggggggggggggggggggggggs9*XXXXXXXXXXXXXXXXXXXXXXXXXXhhhhhhhhhhhhhhhhhhhhhh",
"hhhhhhhhhhhhhhhhhhhhhhhXXXXXXXXXoXXXXXXXXXXXXXXXXX&3tfggggggggggggggggggggft3%XXXXXXXXXXXXXXXXXXXXXXXXXXXhhhhhhhhhhhhhhhhhhhhhhh",
"hhhhhhhhhhhhhhhhhhhhhhhhXXXXXXXXXXXXXXXXXXXXXXXXXXXXO*3wpfggggggggggggfaw3*OXXXXXXXXXXXXXXXXXXXXXXoXXXXXhhhhhhhhhhhhhhhhhhhhhhhh",
"hhhhhhhhhhhhhhhhhhhhhhhhhXXXXXXXXXXXXXXXXXXXXXXXXXXXXXXX@*<49qrrrew94<*#XX.XXXXXXXXXXXXXXXXXXoXXXXXXXXXhhhhhhhhhhhhhhhhhhhhhhhhh",
"hhhhhhhhhhhhhhhhhhhhhhhhhhXXXXXXXXXXXXXXXXXXXXXXXXXXXXXXXXXXXXoooXXX..XXXXXXXXoXXXXXXXXXXXXXXXXXXXXXXXhhhhhhhhhhhhhhhhhhhhhhhhhh",
"hhhhhhhhhhhhhhhhhhhhhhhhhhhXXXXXXXXXXXXXXXXXXXXXXXXXXXXXXXXXXXXXXXXXXXXXXXXXXXXXXXXXXXXXXXXXXXXXXXXXXhhhhhhhhhhhhhhhhhhhhhhhhhhh",
"hhhhhhhhhhhhhhhhhhhhhhhhhhhhXXXXXXXXXXXXXXXXXXXXXXXXXXXXXXXXXXXXXXXXXXXXXXXXXXXXXXXXXXoXXXXXXXXXXXXXhhhhhhhhhhhhhhhhhhhhhhhhhhhh",
"hhhhhhhhhhhhhhhhhhhhhhhhhhhhhXXXXXXXXXXXXXXXXXXXXXXXXXXXXXXXXXXXXXXXXXXXXXXXXXXXXXXXXXXXXXXXXXXXXXXhhhhhhhhhhhhhhhhhhhhhhhhhhhhh",
"hhhhhhhhhhhhhhhhhhhhhhhhhhhhhhXXXXXXXXXXXXXoXXXXXXXXXXXXXXXXXXXXXXXXXXXXXXXXXXXXoXXXXXXXXXXXXXXXXXhhhhhhhhhhhhhhhhhhhhhhhhhhhhhh",
"hhhhhhhhhhhhhhhhhhhhhhhhhhhhhhhXXXXXXXXXXoXXXXXXXXXXXXXXXXXoXXXXXXXXXXXXXXXXXXXXXXXXXXXXXXXXXXXXXhhhhhhhhhhhhhhhhhhhhhhhhhhhhhhh",
"hhhhhhhhhhhhhhhhhhhhhhhhhhhhhhhhXXXXXXXXXXXXXXXXXXXXXXXXXXXXXXXXXXXXXXXXXXXXXXXXXXXXXXXXXoXXXXXXhhhhhhhhhhhhhhhhhhhhhhhhhhhhhhhh",
"hhhhhhhhhhhhhhhhhhhhhhhhhhhhhhhhhhXXXXXXXXXXXXXXXXXXXXXXXXXXXXXXXXXXoXXXXXXoXXXXXXXXXXXXXXXXXXhhhhhhhhhhhhhhhhhhhhhhhhhhhhhhhhhh",
"hhhhhhhhhhhhhhhhhhhhhhhhhhhhhhhhhhhXXXXoXXXXXXXXXXXXXXXXXXXXoXXXXXXXXXXXXXXXXXXXXXXXXXXXXXXXXhhhhhhhhhhhhhhhhhhhhhhhhhhhhhhhhhhh",
"hhhhhhhhhhhhhhhhhhhhhhhhhhhhhhhhhhhhhXXXXXXXXXXXXXXXXXXXXXXXXXXXXXXXXXXXXXXXXXXXXXXXXXXXXXXhhhhhhhhhhhhhhhhhhhhhhhhhhhhhhhhhhhhh",
"hhhhhhhhhhhhhhhhhhhhhhhhhhhhhhhhhhhhhhXXXXXXXXXXXXXXXXXXXXXXXXXXXXXXXXXXXXXXXXXXXXXXXXXXXXhhhhhhhhhhhhhhhhhhhhhhhhhhhhhhhhhhhhhh",
"hhhhhhhhhhhhhhhhhhhhhhhhhhhhhhhhhhhhhhhhXXXXXXXXXXXXXXXXXXXXXXXXXXXXXXXXXXXXXXXXXXXXXXXXhhhhhhhhhhhhhhhhhhhhhhhhhhhhhhhhhhhhhhhh",
"hhhhhhhhhhhhhhhhhhhhhhhhhhhhhhhhhhhhhhhhhhXXXXXXoXXXXXXXXXXXXXXXXXXXXXXXXXXXXXXXXXoXXXhhhhhhhhhhhhhhhhhhhhhhhhhhhhhhhhhhhhhhhhhh",
"hhhhhhhhhhhhhhhhhhhhhhhhhhhhhhhhhhhhhhhhhhhhhXXXXXXXXXXXXXXXXXXXXXXXXXXXXXXXXXXXXXXhhhhhhhhhhhhhhhhhhhhhhhhhhhhhhhhhhhhhhhhhhhhh",
"hhhhhhhhhhhhhhhhhhhhhhhhhhhhhhhhhhhhhhhhhhhhhhhhXXXXXXXXXXXXXXXXXXXXXXXXXXXXXXXXhhhhhhhhhhhhhhhhhhhhhhhhhhhhhhhhhhhhhhhhhhhhhhhh",
"hhhhhhhhhhhhhhhhhhhhhhhhhhhhhhhhhhhhhhhhhhhhhhhhhhhXXXXXXXXXXXXXXXXX.XXXXXXXXhhhhhhhhhhhhhhhhhhhhhhhhhhhhhhhhhhhhhhhhhhhhhhhhhhh",
"hhhhhhhhhhhhhhhhhhhhhhhhhhhhhhhhhhhhhhhhhhhhhhhhhhhhhhhhOOOOOOOOOO++OOO+hhhhhhhhhhhhhhhhhhhhhhhhhhhhhhhhhhhhhhhhhhhhhhhhhhhhhhhh",
"hhhhhhhhhhhhhhhhhhhhhhhhhhhhhhhhhhhhhhhhhhhhhhhhhhhhhhhhhhhhhhhhhhhhhhhhhhhhhhhhhhhhhhhhhhhhhhhhhhhhhhhhhhhhhhhhhhhhhhhhhhhhhhhh",
"hhhhhhhhhhhhhhhhhhhhhhhhhhhhhhhhhhhhhhhhhhhhhhhhhhhhhhhhhhhhhhhhhhhhhhhhhhhhhhhhhhhhhhhhhhhhhhhhhhhhhhhhhhhhhhhhhhhhhhhhhhhhhhhh",
"hhhhhhhhhhhhhhhhhhhhhhhhhhhhhhhhhhhhhhhhhhhhhhhhhhhhhhhhhhhhhhhhhhhhhhhhhhhhhhhhhhhhhhhhhhhhhhhhhhhhhhhhhhhhhhhhhhhhhhhhhhhhhhhh",
"hhhhhhhhhhhhhhhhhhhhhhhhhhhhhhhhhhhhhhhhhhhhhhhhhhhhhhhhhhhhhhhhhhhhhhhhhhhhhhhhhhhhhhhhhhhhhhhhhhhhhhhhhhhhhhhhhhhhhhhhhhhhhhhh",
"hhhhhhhhhhhhhhhhhhhhhhhhhhhhhhhhhhhhhhhhhhhhhhhhhhhhhhhhhhhhhhhhhhhhhhhhhhhhhhhhhhhhhhhhhhhhhhhhhhhhhhhhhhhhhhhhhhhhhhhhhhhhhhhh",
"hhhhhhhhhhhhhhhhhhhhhhhhhhhhhhhhhhhhhhhhhhhhhhhhhhhhhhhhhhhhhhhhhhhhhhhhhhhhhhhhhhhhhhhhhhhhhhhhhhhhhhhhhhhhhhhhhhhhhhhhhhhhhhhh",
"hhhhhhhhhhhhhhhhhhhhhhhhhhhhhhhhhhhhhhhhhhhhhhhhhhhhhhhhhhhhhhhhhhhhhhhhhhhhhhhhhhhhhhhhhhhhhhhhhhhhhhhhhhhhhhhhhhhhhhhhhhhhhhhh",
"hhhhhhhhhhhhhhhhhhhhhhhhhhhhhhhhhhhhhhhhhhhhhhhhhhhhhhhhhhhhhhhhhhhhhhhhhhhhhhhhhhhhhhhhhhhhhhhhhhhhhhhhhhhhhhhhhhhhhhhhhhhhhhhh",
"hhhhhhhhhhhhhhhhhhhhhhhhhhhhhhhhhhhhhhhhhhhhhhhhhhhhhhhhhhhhhhhhhhhhhhhhhhhhhhhhhhhhhhhhhhhhhhhhhhhhhhhhhhhhhhhhhhhhhhhhhhhhhhhh",
"hhhhhhhhhhhhhhhhhhhhhhhhhhhhhhhhhhhhhhhhhhhhhhhhhhhhhhhhhhhhhhhhhhhhhhhhhhhhhhhhhhhhhhhhhhhhhhhhhhhhhhhhhhhhhhhhhhhhhhhhhhhhhhhh",
"hhhhhhhhhhhhhhhhhhhhhhhhhhhhhhhhhhhhhhhhhhhhhhhhhhhhhhhhhhhhhhhhhhhhhhhhhhhhhhhhhhhhhhhhhhhhhhhhhhhhhhhhhhhhhhhhhhhhhhhhhhhhhhhh",
"hhhhhhhhhhhhhhhhhhhhhhhhhhhhhhhhhhhhhhhhhhhhhhhhhhhhhhhhhhhhhhhhhhhhhhhhhhhhhhhhhhhhhhhhhhhhhhhhhhhhhhhhhhhhhhhhhhhhhhhhhhhhhhhh"
};
