/* XPM */
static char *_516721550311[] = {
/* columns rows colors chars-per-pixel */
"32 32 143 2 ",
"   c #DBFBA86E2605",
".  c #DC25A8D226FD",
"X  c #DC45A92027C1",
"o  c #DC4FA93927FF",
"O  c #DC63A9692878",
"+  c #DC89A9C5295B",
"@  c #DCA1AA0029EF",
"#  c #DCB7AA362A75",
"$  c #DCD9AA892B45",
"%  c #DD09AAFE2C6B",
"&  c #DD32AB602D61",
"*  c #DD52ABAF2E27",
"=  c #DD6FABF62EDC",
"-  c #DD89AC352F72",
";  c #DD9DAC652FEC",
":  c #DDE5AD1531A9",
">  c #DDFFAD553248",
",  c #DE37ADDC339E",
"<  c #DEB2AF083696",
"1  c #DED6AF5F3754",
"2  c #DEEFAF9C3800",
"3  c #DF19B005391A",
"4  c #DF32B04139A1",
"5  c #DF4DB0823A48",
"6  c #DF71B0DC3B2A",
"7  c #DF95B1303BEE",
"8  c #DFC3B1A13D0E",
"9  c #DFEBB2033DFE",
"0  c #E009B2493E9E",
"q  c #E01FB2823F3F",
"w  c #E056B3044060",
"e  c #E065B32740B5",
"r  c #E07EB3674159",
"t  c #E0ACB3D3426B",
"y  c #E0BDB4014301",
"u  c #E0F9B494446B",
"i  c #E11DB4EA4540",
"p  c #E179B5CD4798",
"a  c #E20AB72D4B01",
"s  c #E221B7674BA5",
"d  c #E248B7C04C49",
"f  c #E271B8284D64",
"g  c #E27CB8424DA9",
"h  c #E296B8854E7C",
"j  c #E2CBB9044F92",
"k  c #E2E1B93B5030",
"l  c #E34DBA4052AF",
"z  c #E36ABA885361",
"x  c #E3AEBB2C54F7",
"c  c #E423BC4857B4",
"v  c #E457BCBF5899",
"b  c #E46FBD0359A9",
"n  c #E480BD2C5A11",
"m  c #E492BD575A67",
"M  c #E4D1BDEF5BD4",
"N  c #E4EDBE2F5C55",
"B  c #E50CBE825D5B",
"V  c #E54FBF245EF0",
"C  c #E568BF635F9A",
"Z  c #E5AEC009611D",
"A  c #E5EEC0A662B7",
"S  c #E603C0DB6338",
"D  c #E632C14B643F",
"F  c #E692C2376697",
"G  c #E732C3BA6A4F",
"H  c #E845C65A7103",
"J  c #E8A4C734729D",
"K  c #E8F3C7F67484",
"L  c #E90AC82E750E",
"P  c #E916C84B7558",
"I  c #EC50D02388DC",
"U  c #EC67D05A8966",
"Y  c #EC6DD06A8990",
"T  c #EC91D0C28A6F",
"R  c #ED59D2A98F3A",
"E  c #EDB8D39691BB",
"W  c #EE53D50F9565",
"Q  c #EF06D6C599B6",
"!  c #EF91D8139CD9",
"~  c #EFF5D8FE9EE7",
"^  c #F044D9C1A0D6",
"/  c #F0E4DB4CA4E3",
"(  c #F104DB97A586",
")  c #F15ADC67A77F",
"_  c #F1D1DD8BAA69",
"`  c #F1F6DDE7AB62",
"'  c #F22ADE68ACB1",
"]  c #F252DEC6AD77",
"[  c #F2A6DF92AF8C",
"{  c #F2E5E027B0D9",
"}  c #F357E140B3A1",
"|  c #F396E1DAB531",
" . c #F3B8E226B5B5",
".. c #F3E7E298B6D0",
"X. c #F401E2D7B770",
"o. c #F4CFE4CFBC6A",
"O. c #F549E5FABF62",
"+. c #F579E66EC084",
"@. c #F601E7C7C3FB",
"#. c #F68CE907C6DC",
"$. c #F6D6E9CBC903",
"%. c #F6F6EA18C9BD",
"&. c #F73AEAB2CB1D",
"*. c #F763EB15CC17",
"=. c #F801EC95CFC6",
"-. c #F84EED50D1A4",
";. c #F872EDA9D287",
":. c #F8ACEE36D3EC",
">. c #F900EF01D5D8",
",. c #F968EFFFD84E",
"<. c #F97EF036D8D6",
"1. c #F997F070D964",
"2. c #F9D1F0FEDAC9",
"3. c #F9FCF166DBCF",
"4. c #FA15F1A1DC3F",
"5. c #FA2EF1DDDCDF",
"6. c #FA55F23BDDC4",
"7. c #FA74F286DE78",
"8. c #FA85F2B0DEE6",
"9. c #FAD5F37AE0F8",
"0. c #FB23F438E2D9",
"q. c #FB3DF474E36B",
"w. c #FB9FF560E5B2",
"e. c #FBE5F60CE757",
"r. c #FC28F6B1E8F5",
"t. c #FC6EF756EA74",
"y. c #FCC9F832ECA8",
"u. c #FCF2F89BEDB6",
"i. c #FD4AF96FEFBB",
"p. c #FD87FA04F130",
"a. c #FD9EFA3BF1B6",
"s. c #FDCDFAB0F2DD",
"d. c #FE54FBF5F604",
"f. c #FE80FC5FF705",
"g. c #FEA1FCB0F7D1",
"h. c #FF30FE0BFB2A",
"j. c #FF52FE5EFBF8",
"k. c #FF65FE8BFC6C",
"l. c #FF7AFEBDFCE3",
"z. c #FF85FED7FD1F",
"x. c #FFA6FF2AFDF0",
"c. c #FFFEFFFDFFFB",
"v. c None",
/* pixels */
"v.v.v.v.v.v.v.v.v.v.v.v.v.v.v.v.v.v.v.v.v.v.v.v.v.v.v.v.v.v.v.v.",
"v.v.v.v.v.v.v.v.v.v.v.v.v.v.v.v.v.v.v.v.v.v.v.v.v.v.v.v.v.v.v.v.",
"v.v.v.v.v.v.v.v.v.v.v.v.v.v.v.v.v.v.v.v.v.v.v.v.v.v.v.v.v.v.v.v.",
"v.v.v.v.v.v.v.v.v.v.v.v.V 9 r r r r r r v.v.v.v.v.v.v.v.v.v.v.v.",
"v.v.v.v.v.v.v.v.v.v.  $ % % 5 i i 5 5 % $ $ v.v.v.v.v.v.v.v.v.v.",
"v.v.v.v.v.v.v.v.$ $ % % d l V A b Z D 9 % % r 5 v.v.v.v.v.v.v.v.",
"v.v.v.v.v.v.v.$ % $ 5 l D l 9 9 l r 5 : b Z V r $ v.v.v.v.v.v.v.",
"v.v.v.v.v.v.$ 9 V 2 i b s H ~ o...~ K r i V G b 9 % v.v.v.v.v.v.",
"v.v.v.v.v.: 9 x V : 2 R 8.z.z.z.z.z.z.8.T 2 5 v i $ $ v.v.v.v.v.",
"v.v.v.v.v.% g A i 9 ..z.z.z.z.z.z.z.z.z.z...w % $ $ $ v.v.v.v.v.",
"v.v.v.v.  : A l 9 o.z.z.z.z.z.z.z.z.z.z.z.z...2 i i % o v.v.v.v.",
"v.v.v.v.$ 9 V 5 U z.z.z.z.z.z.z.z.z.z.z.z.z.z.I 1 H i   v.v.v.v.",
"v.v.v.r o g l r 8.f.=.-.a.a.a.z.z.z.z.z.z.z.z.8.i d d % v v.v.v.",
"v.v.v.r : D 2 P z.2.^ *.( -.2.w.2.h.r.9.g.w.i.z.P % V s d v.v.v.",
"v.v.v.w 5 D % ^ z.2...z.{ ) o.Q ' o.>.W +.E q.z.^ $ b 1 r v.v.v.",
"v.v.v.r % g : ..z.2.} i.( { } ' 9.( ` ! ' ' z.z...5 V 9 w v.v.v.",
"v.v.v.r   1 : ..z.r.( ..>.8.-.=.t.*...' =.*.z.z.o.2 s 5 w v.v.v.",
"v.v.v.r $ $ $ ^ z.z.z.z.z.z.z.z.z.z.z.z.z.z.z.z.~ $ $ o r v.v.v.",
"v.v.v.r $ $   P z.z.z.z.z.z.z.z.z.z.z.z.z.z.z.h.K o $ $ r v.v.v.",
"v.v.v.r   $ $ r 9.z.z.z.z.z.z.z.z.z.z.z.z.z.z.8.r $ $ $ i v.v.v.",
"v.v.v.v.$ $ $   T z.z.z.z.z.z.z.z.z.z.z.z.z.h.I $ $ $   v.v.v.v.",
"v.v.v.v.$ % $ $ 2 ..z.z.z.z.8.r.f.a.z.z.z.z...1 $ $ $ $ v.v.v.v.",
"v.v.v.v.v.% $ $ $ 9 o.z.z.a.@.@.*.*.i.z.z...r $ $ $ $ v.v.v.v.v.",
"v.v.v.v.v.% $ $ $ $ 1 T 8.8.i.a.9.f.h.2.R 1 $ $ $ $ $ v.v.v.v.v.",
"v.v.v.v.v.v.$ $ $ $ $ $ r J ~ ....^ K r $ $ $ $ $ $ v.v.v.v.v.v.",
"v.v.v.v.v.v.v.$ $ $ $ $ $   $ % $ o $ o $ $ $ $ $ v.v.v.v.v.v.v.",
"v.v.v.v.v.v.v.v.o $ $ $ $ $ $ $ $ $ $ $ $ $ $ $ v.v.v.v.v.v.v.v.",
"v.v.v.v.v.v.v.v.v.v.o $ $ $ $   $ $ $ $   $ v.v.v.v.v.v.v.v.v.v.",
"v.v.v.v.v.v.v.v.v.v.v.v.r r r r 9 r r r v.v.v.v.v.v.v.v.v.v.v.v.",
"v.v.v.v.v.v.v.v.v.v.v.v.v.v.v.v.v.v.v.v.v.v.v.v.v.v.v.v.v.v.v.v.",
"v.v.v.v.v.v.v.v.v.v.v.v.v.v.v.v.v.v.v.v.v.v.v.v.v.v.v.v.v.v.v.v.",
"v.v.v.v.v.v.v.v.v.v.v.v.v.v.v.v.v.v.v.v.v.v.v.v.v.v.v.v.v.v.v.v."
};
