/* XPM */
static char *_516721516048[] = {
/* columns rows colors chars-per-pixel */
"16 16 75 1 ",
"  c #DBC3A7E324AD",
". c #DBE6A838257F",
"X c #DBF9A86725F6",
"o c #DC2CA8E2272B",
"O c #DC4CA93227EE",
"+ c #DC5EA95D2859",
"@ c #DC89A9C6295E",
"# c #DCA6AA0D2A10",
"$ c #DD21AB362CF3",
"% c #DD49AB992DF7",
"& c #DDA8AC813041",
"* c #DDF9AD463226",
"= c #DE21ADA73318",
"- c #DE55AE253449",
"; c #DECAAF41370C",
": c #DF74B0E13B32",
"> c #DFB2B17A3CB8",
", c #DFDBB1DD3DAD",
"< c #E07CB3654185",
"1 c #E08FB39441FC",
"2 c #E112B4D4452F",
"3 c #E14EB5614661",
"4 c #E165B59D4714",
"5 c #E1BAB66948EF",
"6 c #E1FFB7154ACA",
"7 c #E27BB83B4D6F",
"8 c #E2ADB8B64E8C",
"9 c #E2D7B9224FE7",
"0 c #E314B9B4514A",
"q c #E473BD06595E",
"w c #E53ABEEA5E1B",
"e c #E5A0BFE4608E",
"r c #E6EFC314688A",
"t c #E84DC6617095",
"y c #E8E5C7D37431",
"u c #E941C8B5766B",
"i c #E9E1CA397A30",
"p c #E9F4CA687AAC",
"a c #EAD6CC8F8013",
"s c #EB3BCD848276",
"d c #EF39D7389A81",
"f c #EF4DD7679AF6",
"g c #EFCBD89C9DFD",
"h c #F307E07EB1CB",
"j c #F35AE147B3B4",
"k c #F3AFE215B5B8",
"l c #F3D7E276B69B",
"z c #F51FE593BE5E",
"x c #F754EAF2CBB7",
"c c #F7BCEBECCE29",
"v c #F967EFFBD841",
"b c #F971F013D87C",
"n c #F9B7F0C6DA47",
"m c #F9E1F123DB0F",
"M c #F9F0F147DB79",
"N c #FA4FF236DDDA",
"B c #FACEF366E0B4",
"V c #FB65F4D1E436",
"C c #FB91F53EE546",
"Z c #FBDFF5FBE721",
"A c #FC01F64EE7F0",
"S c #FC58F71CE9E2",
"D c #FCA0F7CDEB9B",
"F c #FD26F919EEEF",
"G c #FD53F982EFE8",
"H c #FD6AF9B9F071",
"J c #FD91FA1AF164",
"K c #FE0CFB44F444",
"L c #FE3CFBBDF578",
"P c #FF51FE58FBE6",
"I c #FF70FEA5FCA2",
"U c #FFB5FF4DFE43",
"Y c #FFCFFF8DFEE8",
"T c white",
"R c None",
/* pixels */
"RRRRRRRRRRRRRRRR",
"RRRRRRRRRRRRRRRR",
"RRRRR;,33:%RRRRR",
"RRR*;3rpsq996RRR",
"RRR67gSTTCg6*RRR",
"RR*9gITTTTTf3*RR",
"RR,emcvCGHHVw1RR",
"RR:iCxllzjjGi1RR",
"RROyHmSCCbVIy*RR",
"RR.7GTTTTTTS7.RR",
"RR.%fTTGLTTf%@RR",
"RRR.;fNmNCf;@RRR",
"RRR.@%7tt7%@@RRR",
"RRRRR@. ...RRRRR",
"RRRRRRRRRRRRRRRR",
"RRRRRRRRRRRRRRRR"
};
