/* XPM */
static char *_516721565379[] = {
/* columns rows colors chars-per-pixel */
"64 64 244 2 ",
"   c #DBE3A830256B",
".  c #DC01A87B2624",
"X  c #DC37A8FD2769",
"o  c #DC42A91A27B0",
"O  c #DC52A9412811",
"+  c #DC63A96A2879",
"@  c #DC7DA9A92916",
"#  c #DCA6AA0D2A0E",
"$  c #DCB9AA3B2A82",
"%  c #DCDAAA8A2B46",
"&  c #DCF8AAD42C01",
"*  c #DD1AAB252CCE",
"=  c #DD2BAB4F2D37",
"-  c #DD4AAB9B2DF9",
";  c #DD61ABD32E88",
":  c #DD77AC0A2F0F",
">  c #DD8DAC412F93",
",  c #DDA0AC6D3000",
"<  c #DDD8ACF7315B",
"1  c #DDEAAD2131CB",
"2  c #DE05AD643278",
"3  c #DE25ADB3333F",
"4  c #DE45ADFD33E0",
"5  c #DE6FAE673500",
"6  c #DEA0AEDC3621",
"7  c #DEC1AF2E3701",
"8  c #DECFAF50374A",
"9  c #DEF9AFB7384D",
"0  c #DF17B0013905",
"q  c #DF2EB0363988",
"w  c #DF4AB07D3A42",
"e  c #DF5EB0AD3AC6",
"r  c #DF74B0E13B3D",
"t  c #DF93B12E3C07",
"y  c #DFA2B1513C47",
"u  c #DFC4B1A43D20",
"i  c #DFF6B21A3E1F",
"p  c #E01AB2743F1D",
"a  c #E045B2DD4010",
"s  c #E05EB31B40C8",
"d  c #E060B32240ED",
"f  c #E088B38041B9",
"g  c #E08DB3904208",
"h  c #E0C6B4174340",
"j  c #E0D5B43E439F",
"k  c #E0F1B483445B",
"l  c #E10CB4C444FE",
"z  c #E173B5BD475F",
"x  c #E196B616485B",
"c  c #E1A8B63F489F",
"v  c #E1D5B6A84986",
"b  c #E1EAB6E14A3F",
"n  c #E207B7264AE0",
"m  c #E223B7694B88",
"M  c #E240B7B04C3A",
"N  c #E265B80D4D3F",
"B  c #E280B84E4DC8",
"V  c #E291B8784E45",
"C  c #E2CFB90C4FA4",
"Z  c #E2D9B9254FE2",
"A  c #E2F1B962508E",
"S  c #E316B9BA5158",
"D  c #E33FBA1E525F",
"F  c #E35ABA5E52EE",
"G  c #E38DBADD5445",
"H  c #E3CABB6B5552",
"J  c #E3E5BBB7567B",
"K  c #E411BC1F5768",
"L  c #E42CBC5957A5",
"P  c #E448BCA458A4",
"I  c #E455BCC558FF",
"U  c #E47EBD295A04",
"Y  c #E493BD5C5A94",
"T  c #E4AEBD9F5B45",
"R  c #E4DABE075C29",
"E  c #E53DBEF15E26",
"W  c #E540BF075EF0",
"Q  c #E577BF805F87",
"!  c #E592BFC3604B",
"~  c #E5B7C01F614E",
"^  c #E5DAC06D61CA",
"/  c #E5E2C0816204",
"(  c #E60CC0EF635C",
")  c #E624C12A6413",
"_  c #E644C175649A",
"`  c #E65CC1B26547",
"'  c #E66DC1D66565",
"]  c #E688C21F665C",
"[  c #E6BAC297678E",
"{  c #E6E7C30668A8",
"}  c #E6F4C32468EB",
"|  c #E705C34D694D",
" . c #E72CC3AF6A57",
".. c #E75AC4276BD9",
"X. c #E767C43E6BBB",
"o. c #E788C48E6C7E",
"O. c #E7E1C5636E72",
"+. c #E809C5C66F81",
"@. c #E820C6007034",
"#. c #E850C671711C",
"$. c #E860C6A6721E",
"%. c #E876C6D4724A",
"&. c #E89FC7347315",
"*. c #E8B4C76A73A8",
"=. c #E8E6C7DE749D",
"-. c #E909C830755C",
";. c #E91AC8557585",
":. c #E933C89D7692",
">. c #E945C8C87705",
",. c #E978C9427831",
"<. c #E98EC97878A9",
"1. c #E995C98D7907",
"2. c #E9BCC9ED79FA",
"3. c #EA0BCAA97BA0",
"4. c #EA55CB5C7D64",
"5. c #EA80CBBB7DE3",
"6. c #EA8ACBDB7E97",
"7. c #EAA8CC2A7F8D",
"8. c #EACCCC747FB3",
"9. c #EAD1CC888034",
"0. c #EAFDCCF7817F",
"q. c #EB0ECD228203",
"w. c #EB5ECDE183AF",
"e. c #EBEACF3486FC",
"r. c #EBF4CF4C8712",
"t. c #EC12CF998803",
"y. c #EC20CFBD8888",
"u. c #EC6ED07489F8",
"i. c #EC78D0908A7B",
"p. c #ECB8D1278BB3",
"a. c #ECCCD15F8C83",
"s. c #ED03D1E48DD7",
"d. c #ED16D2168E74",
"f. c #ED7DD3008FFF",
"g. c #ED85D31E90B5",
"h. c #EDC5D3AE91AF",
"j. c #EDEDD41092A3",
"k. c #EDF8D4369393",
"l. c #EE3CD4D4949E",
"z. c #EE57D513953C",
"x. c #EE6ED54B95B1",
"c. c #EE67D545963B",
"v. c #EE8BD596969E",
"b. c #EEA4D5D4974E",
"n. c #EEDCD65D98AA",
"m. c #EF0CD6D899E5",
"M. c #EF1DD6FD9A61",
"N. c #EF67D7B69C01",
"B. c #EF71D7C79C32",
"V. c #EFDBD8C99EBD",
"C. c #EFF4D9049F46",
"Z. c #F024D973A00C",
"A. c #F033D997A066",
"S. c #F057DA07A1D3",
"D. c #F084DA75A2E0",
"F. c #F0BBDAE8A3EF",
"G. c #F0FEDB8DA595",
"H. c #F17ADCB9A875",
"J. c #F1ABDD32A9BC",
"K. c #F1C9DD7AAA65",
"L. c #F20ADE19ABEE",
"P. c #F236DE82ACE2",
"I. c #F28FDF59AEFA",
"U. c #F293DF66AF22",
"Y. c #F2E5E02BB108",
"T. c #F2F1E052B175",
"R. c #F308E088B1F4",
"E. c #F351E138B3AE",
"W. c #F3B9E22AB5CA",
"Q. c #F3D9E279B694",
"!. c #F3EAE2B4B767",
"~. c #F41EE334B8A8",
"^. c #F433E368B92E",
"/. c #F448E392B990",
"(. c #F4D4E4DEBCB5",
"). c #F4F6E532BD89",
"_. c #F52CE5C2BF07",
"`. c #F549E5FCBF77",
"'. c #F5C2E72DC278",
"]. c #F5EDE798C394",
"[. c #F633E83FC525",
"{. c #F6CEE9ACC8A0",
"}. c #F6F9EA14C991",
"|. c #F715EA5CCA6F",
" X c #F735EAA8CB17",
".X c #F760EB0BCBE2",
"XX c #F777EB49CCAB",
"oX c #F7CAEC11CE8B",
"OX c #F7FFEC98CFF5",
"+X c #F825ECEED0BD",
"@X c #F845ED3DD199",
"#X c #F871EDA9D29E",
"$X c #F87FEDCAD2F4",
"%X c #F8ACEE37D3F1",
"&X c #F8BBEE5ED473",
"*X c #F8C9EE7ED49D",
"=X c #F918EF3DD676",
"-X c #F98EF058D90E",
";X c #F9A3F08FD9B2",
":X c #F9CDF0FBDAD9",
">X c #F9F8F159DB89",
",X c #FA28F1D3DCF0",
"<X c #FA5CF24DDDF0",
"1X c #FA8EF2CADF4C",
"2X c #FA97F2E9DFAA",
"3X c #FAE1F39AE15D",
"4X c #FB00F3E2E210",
"5X c #FB25F43DE2EE",
"6X c #FB72F4FAE4B6",
"7X c #FB8AF533E548",
"8X c #FB9CF558E59D",
"9X c #FBD0F5DBE6EC",
"0X c #FC39F6D3E92D",
"qX c #FC49F6FDE99D",
"wX c #FC90F7ACEB68",
"eX c #FC95F7BBEB95",
"rX c #FCCBF83CECCF",
"tX c #FCF5F8A0EDC2",
"yX c #FD22F90EEED4",
"uX c #FD57F989EFEC",
"iX c #FD72F9CEF09B",
"pX c #FD8BFA0AF12E",
"aX c #FDAAFA5BF215",
"sX c #FDBAFA7FF268",
"dX c #FDD0FAB3F2E2",
"fX c #FE04FB31F415",
"gX c #FE17FB63F49C",
"hX c #FE27FB86F4E4",
"jX c #FE52FBEFF5EA",
"kX c #FE87FC71F736",
"lX c #FE8DFC80F75F",
"zX c #FEAEFCD0F81C",
"xX c #FECDFD18F8CE",
"cX c #FEEAFD64F9A5",
"vX c #FEFFFD95FA14",
"bX c #FF1FFDE1FAC3",
"nX c #FF47FE42FBAE",
"mX c #FF73FEAFFCC5",
"MX c #FF84FED8FD28",
"NX c #FFACFF38FE18",
"BX c #FFC4FF72FEA4",
"VX c #FFE1FFB8FF51",
"CX c #FFFEFFFEFFFE",
"ZX c None",
/* pixels */
"ZXZXZXZXZXZXZXZXZXZXZXZXZXZXZXZXZXZXZXZXZXZXZXZXZXZXZXZXZXZXZXZXZXZXZXZXZXZXZXZXZXZXZXZXZXZXZXZXZXZXZXZXZXZXZXZXZXZXZXZXZXZXZXZX",
"ZXZXZXZXZXZXZXZXZXZXZXZXZXZXZXZXZXZXZXZXZXZXZXZXZXZXZXZXZXZXZXZXZXZXZXZXZXZXZXZXZXZXZXZXZXZXZXZXZXZXZXZXZXZXZXZXZXZXZXZXZXZXZXZX",
"ZXZXZXZXZXZXZXZXZXZXZXZXZXZXZXZXZXZXZXZXZXZXZXZXZXZXZXZXZXZXZXZXZXZXZXZXZXZXZXZXZXZXZXZXZXZXZXZXZXZXZXZXZXZXZXZXZXZXZXZXZXZXZXZX",
"ZXZXZXZXZXZXZXZXZXZXZXZXZXZXZXZXZXZXZXZXZXZXZXZXZXZXZXZXZXZXZXZXZXZXZXZXZXZXZXZXZXZXZXZXZXZXZXZXZXZXZXZXZXZXZXZXZXZXZXZXZXZXZXZX",
"ZXZXZXZXZXZXZXZXZXZXZXZXZXZXZXZXZXZXZXZXZXZXZXZXZXZXZXZXZXZXZXZXZXZXZXZXZXZXZXZXZXZXZXZXZXZXZXZXZXZXZXZXZXZXZXZXZXZXZXZXZXZXZXZX",
"ZXZXZXZXZXZXZXZXZXZXZXZXZXZXZXZXZXZXZXZXZXZXZXZXZXZXZXZXZXZXZXZXZXZXZXZXZXZXZXZXZXZXZXZXZXZXZXZXZXZXZXZXZXZXZXZXZXZXZXZXZXZXZXZX",
"ZXZXZXZXZXZXZXZXZXZXZXZXZXZXZXZXZXZXZXZXZXZXZXZXZXZXZXi i i i i i i i i i ZXZXZXZXZXZXZXZXZXZXZXZXZXZXZXZXZXZXZXZXZXZXZXZXZXZXZX",
"ZXZXZXZXZXZXZXZXZXZXZXZXZXZXZXZXZXZXZXZXZXZXZXr 8 % % % % % X % % % O % % % % % % ZXZXZXZXZXZXZXZXZXZXZXZXZXZXZXZXZXZXZXZXZXZXZX",
"ZXZXZXZXZXZXZXZXZXZXZXZXZXZXZXZXZXZXZXZXZX% % % % % O % % i m > 2 9 & % % % % % % % % ZXZXZXZXZXZXZXZXZXZXZXZXZXZXZXZXZXZXZXZXZX",
"ZXZXZXZXZXZXZXZXZXZXZXZXZXZXZXZXZXZXZX2 % % % % % r i % % Y _ 8  .-.8 J m i 8 % % % % % % ZXZXZXZXZXZXZXZXZXZXZXZXZXZXZXZXZXZXZX",
"ZXZXZXZXZXZXZXZXZXZXZXZXZXZXZXZXZXO O % % % % % 9 J i % z Y Y V F F % -.F 1.F % % % % % & 8 & ZXZXZXZXZXZXZXZXZXZXZXZXZXZXZXZXZX",
"ZXZXZXZXZXZXZXZXZXZXZXZXZXZXZXZX% % % % % & & % & E -.I ( 1.a.*.8 6._ e.z e.i % O % % % i #.E , ZXZXZXZXZXZXZXZXZXZXZXZXZXZXZXZX",
"ZXZXZXZXZXZXZXZXZXZXZXZXZXZXZX% % % & % % F i _ _ l.9.-.Y m 2 j E 6.E m 2 _ & % m _ -.g 9 #.! , % ZXZXZXZXZXZXZXZXZXZXZXZXZXZXZX",
"ZXZXZXZXZXZXZXZXZXZXZXZXZXZX% % & O % % 2 8 & 1.1.9 2 % X   X 2 g 2   X & & % % F 9.Z.9 #.+.& 2 % % ZXZXZXZXZXZXZXZXZXZXZXZXZXZX",
"ZXZXZXZXZXZXZXZXZXZXZXZXZX% % % +.F % O m 6. .+.2 O X 2 m ( -.6.6.*.! m 8 % X % r m #.-.m.2 ( _ X % % ZXZXZXZXZXZXZXZXZXZXZXZXZX",
"ZXZXZXZXZXZXZXZXZXZXZXZX% % s J z k.z % & m J J 8 J l.}.9XzXCXCXCXCXcXqX{.k.J > r M 8 m 6._ p.i +.r % % ZXZXZXZXZXZXZXZXZXZXZXZX",
"ZXZXZXZXZXZXZXZXZXZXZX% % & 9 e._ m I % % X 8 _ !.yXCXCXCXCXCXCXCXCXCXCXCXCXyX!.E % % X 8 ! z +.1.& % % % ZXZXZXZXZXZXZXZXZXZXZX",
"ZXZXZXZXZXZXZXZXZXZX% % i +.r 8 y.8 % % O s Z.iXCXCXCXCXCXCXCXCXCXCXCXCXCXCXCXCXyXZ.i % % X r 1.2 % % % % % ZXZXZXZXZXZXZXZXZXZX",
"ZXZXZXZXZXZXZXZXZXZXO % J #.F y.( % % O J }.CXCXCXCXCXCXCXCXCXCXCXCXCXCXCXCXCXCXCXCX}.J % % % & % % % % % % ZXZXZXZXZXZXZXZXZXZX",
"ZXZXZXZXZXZXZXZXZX% % % 2 m s -.F O O E <XCXCXCXCXCXCXCXCXCXCXCXCXCXCXCXCXCXCXCXCXCXCX<XE X % % % % % % % % % ZXZXZXZXZXZXZXZXZX",
"ZXZXZXZXZXZXZXZXZX% % % g u.i +.r X J <XCXCXCXCXCXCXCXCXCXCXCXCXCXCXCXCXCXCXCXCXCXCXCXCX<XJ % % m i O % % % % ZXZXZXZXZXZXZXZXZX",
"ZXZXZXZXZXZXZXZX% % % 8 8.>.z z % g }.CXCXCXCXCXCXCXCXCXCXCXCXCXCXCXCXCXCXCXCXCXCXCXCXCXCX}.i % i #.! m & % % % ZXZXZXZXZXZXZXZX",
"ZXZXZXZXZXZXZXZX% % % L *.I J > % Z.CXCXCXCXCXCXCXCXCXCXCXCXCXCXCXCXCXCXCXCXCXCXCXCXCXCXCXCXS.& O 8 #.k.M % % % ZXZXZXZXZXZXZXZX",
"ZXZXZXZXZXZXZX% % % % i *.i g % E iXCXCXCXCXCXCXCXCXCXCXCXCXCXCXCXCXCXCXCXCXCXCXCXCXCXCXCXCXiXE X m F a._ % % % O ZXZXZXZXZXZXZX",
"ZXZXZXZXZXZXZX% % % & _ +.8 % & !.CXCXCXCXCXCXCXCXCXCXCXCXCXCXCXCXCXCXCXCXCXCXCXCXCXCXCXCXCXCX!.& 2 m +.F X % % X ZXZXZXZXZXZXZX",
"ZXZXZXZXZXZXZX% % % & 6.( z X J iXCXCXeXG.l.m.Y.9XCXCX}.}.CXCXCXCXCXCXCXCXCXCXCXCXCXCXCXCXCXCXyXI O O k 6.8 2 & X ZXZXZXZXZXZXZX",
"ZXZXZXZXZXZXZX% % % g >.M 2 % l.CXCXCX}.F I.E.y.( }.CXK.I.CXCXCXCXCXCXCXCXCXCXCXCXCXCXCXCXCXCXCXl.% % & 9.i _ F X ZXZXZXZXZXZXZX",
"ZXZXZXZXZXZXi X % 8 a.-.X % 2 }.CXCXCX}._ cXCXCXK._ iX<X>XCX%X5X!.(.iXCXyX(.I.%XCXcX%X>X_.cXCXCX}.2 % O +.! J Y O i ZXZXZXZXZXZX",
"ZXZXZXZXZXZXi % % z y.J % % m 9XCXCXCX}._ jXCXCXqXI =Xl.l.cX_ >.l._ l.CX@XZ.D.( @XiX_ +.m.jXCXCXqXm X O L  .& & % i ZXZXZXZXZXZX",
"ZXZXZXZXZXZXi % % 8 k.m O X ( zXCXCXCX}._ jXCXCXiXE XXk.l.cX! E.CX}.E iXCXeXXX+.B.jXL I.CXCXCXCXcX( X % i k.8 % % i ZXZXZXZXZXZX",
"ZXZXZXZXZXZXi % % X V ( O O -.CXCXCXCX}._ jXCXCX<XI 5Xk.l.cX_ }.CX>X! yX_.*.l._ l.jX! @XCXCXCXCXCX>.O & i  .X % % i ZXZXZXZXZXZX",
"ZXZXZXZXZXZXi % % % 9  .% X 8.CXCXCXCX}._ cXCXiXy.9.CXa.l.cX .}.CX=XE 9X_ _.CXa.l.iX! @XCXCXCXCXCX6.& E Y 1.Y & % i ZXZXZXZXZXZX",
"ZXZXZXZXZXZXi % % % > J & o 6.CXCXCXCX}.V m.m.-.1.9XCXa.l.cX .}.CX-X( qX6.6.K.E l.iX( %XCXCXCXCXCX6.% Y M 9.#.% % i ZXZXZXZXZXZX",
"ZXZXZXZXZXZXi X % % % & & X *.CXCXCXCXyX!.K.Y.@XcXCXCX>X>XCX}.rXCXiX}.cX9XI.~.%X>XcX}.iXCXCXCXCXCX-.X 2 % & % % % i ZXZXZXZXZXZX",
"ZXZXZXZXZXZXi % % % % % % % ( zXCXCXCXCXCXCXCXCXCXCXCXCXCXCXCXCXCXCXCXCXCXCXCXCXCXCXCXCXCXCXCXCXzX( X % % % % % % i ZXZXZXZXZXZX",
"ZXZXZXZXZXZXi % % % % % % % m qXCXCXCXCXCXCXCXCXCXCXCXCXCXCXCXCXCXCXCXCXCXCXCXCXCXCXCXCXCXCXCXCX9Xz % % % % % % % i ZXZXZXZXZXZX",
"ZXZXZXZXZXZXi % % % % % % % 2 }.CXCXCXCXCXCXCXCXCXCXCXCXCXCXCXCXCXCXCXCXCXCXCXCXCXCXCXCXCXCXCXCX}.8 % % % % % % % i ZXZXZXZXZXZX",
"ZXZXZXZXZXZXZX% % % % % % % O l.CXCXCXCXCXCXCXCXCXCXCXCXCXCXCXCXCXCXCXCXCXCXCXCXCXCXCXCXCXCXCXCXl.o % % % % % % % ZXZXZXZXZXZXZX",
"ZXZXZXZXZXZXZX% % % % % % % % I yXCXCXCXCXCXCXCXCXCXCXCXCXCXCXCXCXCXCXCXCXCXCXCXCXCXCXCXCXCXCXiXL % % % % % % % % ZXZXZXZXZXZXZX",
"ZXZXZXZXZXZXZX% % % % % % % % & !.CXCXCXCXCXCXCXCXCXCXCXCXCXCXCXCXCXCXCXCXCXCXCXCXCXCXCXCXCXCX!.> % % % % % % % % ZXZXZXZXZXZXZX",
"ZXZXZXZXZXZXZX% % % % % % % % % E iXCXCXCXCXCXCXCXCXCXCXCXCXCXCXCXCXCXCXCXCXCXCXCXCXCXCXCXCXiXE % % % % % % % % X ZXZXZXZXZXZXZX",
"ZXZXZXZXZXZXZXZX% % % % % % % % & S.CXCXCXCXCXCXCXCXCXCXCXiXCXCXCXCXCXCXCXCXCXCXCXCXCXCXCXCXS.& % % % % % % % % ZXZXZXZXZXZXZXZX",
"ZXZXZXZXZXZXZXZX% % % % % % % % % i }.CXCXCXCXCXCXCXCXCXCX~.iXjXCXCXCXCXCXCXCXCXCXCXCXCXCX}.i % % % % % % % % % ZXZXZXZXZXZXZXZX",
"ZXZXZXZXZXZXZXZXZX% % % % % % % % % J <XCXCXCXCXCXCXCXjXyX!.rX>XiXiX<X{.CXCXCXCXCXCXCXCX<XJ O % % % & % % % % ZXZXZXZXZXZXZXZXZX",
"ZXZXZXZXZXZXZXZXZX% % % % % % % % % % E <XCXCXCXCXCXCXyX~.E.9X>X5X'.cXY.9XCXCXCXCXCXCX<XE % % % % % % % % % % ZXZXZXZXZXZXZXZXZX",
"ZXZXZXZXZXZXZXZXZXZX% % % % % % % % % O J }.CXCXCXCXCXcX~.'.m.m.D._.!.S.9XCXCXCXCXCX}.J X % % % % % % % % % ZXZXZXZXZXZXZXZXZXZX",
"ZXZXZXZXZXZXZXZXZXZXX % % % % % % % % % % s Z.iXCXCX9XY.{.cXiXzXOX<XiXjXCXCXCXCXyXZ.i % % % % % % % % % % % ZXZXZXZXZXZXZXZXZXZX",
"ZXZXZXZXZXZXZXZXZXZXZX% % % % % % % % % % % & E !.yXjX6XCXCXCXCX5X9XCXCXCXCXyX!.E & % % % % % % % % % % % ZXZXZXZXZXZXZXZXZXZXZX",
"ZXZXZXZXZXZXZXZXZXZXZXZX% % % % % % % % % % % % & J l.}.9XzXCXCXCXCXzX9X}.k.L > % % % % % % % % % % % % ZXZXZXZXZXZXZXZXZXZXZXZX",
"ZXZXZXZXZXZXZXZXZXZXZXZXZX% % % % % % % % % % % % % % 8 m ( *.8.8.-.( z 2 X % % % % % % % % % % % % % ZXZXZXZXZXZXZXZXZXZXZXZXZX",
"ZXZXZXZXZXZXZXZXZXZXZXZXZXZX% % % % % % % % % % % % % % O X X X X X % % % % % % % % % % % % % % % % ZXZXZXZXZXZXZXZXZXZXZXZXZXZX",
"ZXZXZXZXZXZXZXZXZXZXZXZXZXZXZX% % % % % % % % % % % % % % % % % % % % % % % % % % % % % & % % % % ZXZXZXZXZXZXZXZXZXZXZXZXZXZXZX",
"ZXZXZXZXZXZXZXZXZXZXZXZXZXZXZXZX% % % % % % % % % % % % % % % % % % % % % % % % % % % % % % % % ZXZXZXZXZXZXZXZXZXZXZXZXZXZXZXZX",
"ZXZXZXZXZXZXZXZXZXZXZXZXZXZXZXZXZX% % % % % % % % % % % % % % % % % % % % % % % % % % % % % % ZXZXZXZXZXZXZXZXZXZXZXZXZXZXZXZXZX",
"ZXZXZXZXZXZXZXZXZXZXZXZXZXZXZXZXZXZXZX& % % % % % % % % % % % % % % % % % % % % % % % % % ZXZXZXZXZXZXZXZXZXZXZXZXZXZXZXZXZXZXZX",
"ZXZXZXZXZXZXZXZXZXZXZXZXZXZXZXZXZXZXZXZXZX% % % % % % % % % % % % % % % % % % % % % % ZXZXZXZXZXZXZXZXZXZXZXZXZXZXZXZXZXZXZXZXZX",
"ZXZXZXZXZXZXZXZXZXZXZXZXZXZXZXZXZXZXZXZXZXZXZX% % % % % % % % % % % % % % % % O % ZXZXZXZXZXZXZXZXZXZXZXZXZXZXZXZXZXZXZXZXZXZXZX",
"ZXZXZXZXZXZXZXZXZXZXZXZXZXZXZXZXZXZXZXZXZXZXZXZXZXZXZXi r i i i i i i i i ZXZXZXZXZXZXZXZXZXZXZXZXZXZXZXZXZXZXZXZXZXZXZXZXZXZXZX",
"ZXZXZXZXZXZXZXZXZXZXZXZXZXZXZXZXZXZXZXZXZXZXZXZXZXZXZXZXZXZXZXZXZXZXZXZXZXZXZXZXZXZXZXZXZXZXZXZXZXZXZXZXZXZXZXZXZXZXZXZXZXZXZXZX",
"ZXZXZXZXZXZXZXZXZXZXZXZXZXZXZXZXZXZXZXZXZXZXZXZXZXZXZXZXZXZXZXZXZXZXZXZXZXZXZXZXZXZXZXZXZXZXZXZXZXZXZXZXZXZXZXZXZXZXZXZXZXZXZXZX",
"ZXZXZXZXZXZXZXZXZXZXZXZXZXZXZXZXZXZXZXZXZXZXZXZXZXZXZXZXZXZXZXZXZXZXZXZXZXZXZXZXZXZXZXZXZXZXZXZXZXZXZXZXZXZXZXZXZXZXZXZXZXZXZXZX",
"ZXZXZXZXZXZXZXZXZXZXZXZXZXZXZXZXZXZXZXZXZXZXZXZXZXZXZXZXZXZXZXZXZXZXZXZXZXZXZXZXZXZXZXZXZXZXZXZXZXZXZXZXZXZXZXZXZXZXZXZXZXZXZXZX",
"ZXZXZXZXZXZXZXZXZXZXZXZXZXZXZXZXZXZXZXZXZXZXZXZXZXZXZXZXZXZXZXZXZXZXZXZXZXZXZXZXZXZXZXZXZXZXZXZXZXZXZXZXZXZXZXZXZXZXZXZXZXZXZXZX",
"ZXZXZXZXZXZXZXZXZXZXZXZXZXZXZXZXZXZXZXZXZXZXZXZXZXZXZXZXZXZXZXZXZXZXZXZXZXZXZXZXZXZXZXZXZXZXZXZXZXZXZXZXZXZXZXZXZXZXZXZXZXZXZXZX"
};
